<svg width="34" height="33" viewBox="0 0 34 33" fill="none" xmlns="http://www.w3.org/2000/svg">
<g clip-path="url(#clip0_5788_59453)">
<path d="M16.9934 7.79238L17.5977 6.78047C17.9695 6.14883 18.7996 5.93613 19.4504 6.29707C20.1012 6.65801 20.3203 7.46367 19.9484 8.09531L14.1379 17.86H18.3414C19.7027 17.86 20.4664 19.4133 19.8754 20.4896H7.55703C6.80664 20.4896 6.20234 19.9031 6.20234 19.1748C6.20234 18.4465 6.80664 17.86 7.55703 17.86H11.0102L15.4328 10.4221L14.0516 8.09531C13.6797 7.46367 13.8988 6.66445 14.5496 6.29707C15.2004 5.93613 16.0238 6.14883 16.4023 6.78047L16.9934 7.79238ZM11.7672 21.8432L10.4656 24.0346C10.0938 24.6662 9.26367 24.8789 8.61289 24.518C7.96211 24.157 7.74297 23.3514 8.11484 22.7197L9.08438 21.0955C10.1734 20.7668 11.0633 21.0182 11.7672 21.8432ZM22.9832 17.8664H26.5094C27.2598 17.8664 27.8641 18.4529 27.8641 19.1813C27.8641 19.9096 27.2598 20.4961 26.5094 20.4961H24.5504L25.8719 22.7197C26.2438 23.3514 26.0246 24.1506 25.3738 24.518C24.723 24.8789 23.8996 24.6662 23.5211 24.0346C21.2965 20.2898 19.623 17.4861 18.5141 15.617C17.3785 13.7156 18.1887 11.8078 18.9922 11.1633C19.882 12.6457 21.2102 14.8822 22.9832 17.8664ZM17 0.515625C7.90234 0.515625 0.53125 7.66992 0.53125 16.5C0.53125 25.3301 7.90234 32.4844 17 32.4844C26.0977 32.4844 33.4688 25.3301 33.4688 16.5C33.4688 7.66992 26.0977 0.515625 17 0.515625ZM31.3438 16.5C31.3438 24.1506 24.9621 30.4219 17 30.4219C9.11758 30.4219 2.65625 24.2279 2.65625 16.5C2.65625 8.84941 9.03789 2.57812 17 2.57812C24.8824 2.57812 31.3438 8.77207 31.3438 16.5Z" fill="#1B1464"/>
</g>
<defs>
<clipPath id="clip0_5788_59453">
<rect width="34" height="33" fill="white"/>
</clipPath>
</defs>
</svg>
