<?xml version="1.0" encoding="UTF-8"?>
<svg version="1.1" viewBox="0 0 2048 307" width="204.8" height="30.7" xmlns="http://www.w3.org/2000/svg">
<path transform="translate(1555,4)" d="m0 0h56l1 1 1 44 1 2 48 1 1 1 1 42h17l1-42 1-1 48-1 1-1 1-45 2-1h56l2 2v297l-2 2h-56l-2-1-1-162-2-1h-24l-2 1v159l-1 3-3 1h-57l-2-2v-162h-27l-1 1-1 162-1 1h-57l-3-2-1-8v-287l2-3z" fill="#28211E"/>
<path transform="translate(1068,4)" d="m0 0h169l2 1 1 28h30l1 1v83l-1 1h-59l-1-52h-110l-1 5v170l3 3h107l1-1v-44l-1-1-80-1v-60l2-1h107l1 1 1 27 1 1 29 1 1 1v108l-1 1-29 1-1 1-1 26-1 1h-171l-2-2-1-26-26-1-1-1v-240l2-2h26v-26z" fill="#29221F"/>
<path transform="translate(777,4)" d="m0 0h56l2 3v48h43l1 2 1 56 3 1h39l4 2 1 55h27l1-166 3-1h55l2 1v299l-2 1h-57l-1-1-1-42-4-1h-35l-1-1-1-57-45 1-2-2-1-57-30-1v158l-2 3h-57l-2-3v-295z" fill="#292320"/>
<path transform="translate(1845,4)" d="m0 0h198l3 3v56l-3 2-167 1v58l149 1 2 4v57l-2 2-149 1-1 55 170 1 1 2v56l-2 2h-199l-2-2-1-26-27-1v-242l1-1 26-1 1-26z" fill="#2B2421"/>
<path transform="translate(555,4)" d="m0 0h195l2 1v59l-1 1h-169l1 59 147 1 3 3v58l-3 2h-148l1 56 168 1 1 1v58l-1 1h-199l-2-1-1-27-27-1-1-240 2-3 26-1 1-26z" fill="#261F1C"/>
<path transform="translate(35,4)" d="m0 0h165l2 1 1 27 30 1 1 2v240l-1 1-29 1-1 1-1 26-1 1h-168l-2-2-1-26-26-1-1-1v-241l1-1 26-1 1-25 1-2zm31 61-2 2-1 174 1 3 3 1h105l2-2v-176l-1-2z" fill="#27201D"/>
<path transform="translate(293,4)" d="m0 0h164l4 2 1 26 30 1 1 1v147l-3 1-28 1-1 26-1 1-137 1-1 93-1 1h-57l-2-1v-270l1-1h27l1-28zm30 61-1 1v82l2 2h107l2-2v-81l-2-2z" fill="#28211E"/>
<path transform="translate(1366,4)" d="m0 0h96l2 2 1 98 30 1 1 97 1 1 33 1v100l-2 1h-57l-2-3v-53l-1-5-2-1h-107l-2 3v54l-2 5h-57l-2-2v-98l1-1 34-1v-97l2-1 28-1 1-3 1-96zm26 102-1 1v73l2 2h40l2-1v-75z" fill="#28211E"/>
<path transform="translate(750,5)" d="m0 0h2v59l-1 1h-169l1 59 147 1 3 3v58l-3 2h-148l1 56 168 1v1h-169l-1-1v-58l1-1h149v-59h-149l-1-1v-62l169-1z" fill="#ACAAA8"/>
<path transform="translate(64,64)" d="m0 0h110l1 2v177l-2 3h-108l-2-1-1-3v-174zm2 1-2 2-1 174 1 3 3 1h105l2-2v-176l-1-2z" fill="#8B8886"/>
<path transform="translate(457,5)" d="m0 0 4 1 1 26 30 1 1 1v147l-3 1-28 1-1 26-1 1-137 1-1 93-1 1h-57v-1l56-1 1-90 1-3 2-1h135l1-27 1-2h31l-1-145-31-1-1-1v-27z" fill="#979593"/>
<path transform="translate(1098,64)" d="m0 0h113l-1 2h-110l-1 5v170l3 3h107l2-1-1 3h-111l-2-3v-177z" fill="#8C8987"/>
<path transform="translate(233,35)" d="m0 0h1v240l-1 1-29 1-1 1-1 26-1 1h-168v-1l167-1 1-27 1-1 30-1z" fill="#8B8886"/>
<path transform="translate(1611,139)" d="m0 0h31l1 165-2-1v-162h-27l-1 1-1 162h-1z" fill="#8C8987"/>
<path transform="translate(1702,139)" d="m0 0h30v3l-2-1h-24l-2 1v159l-1 3-3-1 1-1v-161z" fill="#8C8987"/>
<path transform="translate(1591,4)" d="m0 0h20l1 1 1 44 1 2 48 1 1 1 1 42h17l1-42h1v43l-1 1h-20l-1-1v-43h-48l-2-2-1-45-19-1z" fill="#9F9C9A"/>
<path transform="translate(1390,105)" d="m0 0h46v77l-1 1h-44l-1-1zm2 1-1 1v73l2 2h40l2-1v-75z" fill="#B6B5B3"/>
<path transform="translate(1363,5)" d="m0 0 2 1-1 99-1 1h-30v-1l28-1 1-3z" fill="#8D8A88"/>
<path transform="translate(1390,105)" d="m0 0h1l1 75 1 1 42 1v1h-44l-1-1z" fill="#8C8987"/>
<path transform="translate(64,64)" d="m0 0h109v1l-107 1h-3z" fill="#8D8A88"/>
<path transform="translate(457,5)" d="m0 0 4 1 1 26 30 1 1 2-33-1-1-1v-27z" fill="#B0AEAD"/>
<path transform="translate(1239,275)" d="m0 0h31v1l-29 1-1 1-1 26h-1v-28z" fill="#908D8B"/>
<path transform="translate(1702,139)" d="m0 0h30v3l-2-1h-24l-3 1z" fill="#9C9998"/>
</svg>
